<mxfile host="app.diagrams.net" agent="Mozilla/5.0 (Windows NT 10.0; Win64; x64) AppleWebKit/537.36 (KHTML, like Gecko) Chrome/128.0.0.0 Safari/537.36" version="24.7.7">
  <diagram name="Page-1" id="2YBvvXClWsGukQMizWep">
    <mxGraphModel dx="1050" dy="530" grid="1" gridSize="10" guides="1" tooltips="1" connect="1" arrows="1" fold="1" page="1" pageScale="1" pageWidth="850" pageHeight="1100" math="0" shadow="0">
      <root>
        <mxCell id="0" />
        <mxCell id="1" parent="0" />
        <mxCell id="YEEM2RJTBx1bhuOSEW0l-1" value="Zaposleni" style="shape=umlActor;verticalLabelPosition=bottom;verticalAlign=top;html=1;outlineConnect=0;" parent="1" vertex="1">
          <mxGeometry x="40" y="40" width="30" height="60" as="geometry" />
        </mxCell>
        <mxCell id="YEEM2RJTBx1bhuOSEW0l-2" value="" style="endArrow=none;dashed=1;html=1;rounded=0;fontSize=12;startSize=8;endSize=8;curved=1;" parent="1" source="vn3jzW4ECJBIu7uXpiRa-1" edge="1">
          <mxGeometry width="50" height="50" relative="1" as="geometry">
            <mxPoint x="55" y="520" as="sourcePoint" />
            <mxPoint x="55" y="100" as="targetPoint" />
          </mxGeometry>
        </mxCell>
        <mxCell id="YEEM2RJTBx1bhuOSEW0l-3" value="Forma" style="rounded=1;whiteSpace=wrap;html=1;" parent="1" vertex="1">
          <mxGeometry x="150" y="40" width="120" height="60" as="geometry" />
        </mxCell>
        <mxCell id="YEEM2RJTBx1bhuOSEW0l-4" value="Sistem" style="rounded=1;whiteSpace=wrap;html=1;" parent="1" vertex="1">
          <mxGeometry x="380" y="40" width="120" height="60" as="geometry" />
        </mxCell>
        <mxCell id="YEEM2RJTBx1bhuOSEW0l-5" value="" style="endArrow=none;dashed=1;html=1;rounded=0;fontSize=12;startSize=8;endSize=8;curved=1;" parent="1" source="YEEM2RJTBx1bhuOSEW0l-7" edge="1">
          <mxGeometry width="50" height="50" relative="1" as="geometry">
            <mxPoint x="209.5" y="350" as="sourcePoint" />
            <mxPoint x="209.5" y="100" as="targetPoint" />
          </mxGeometry>
        </mxCell>
        <mxCell id="YEEM2RJTBx1bhuOSEW0l-6" value="" style="endArrow=none;dashed=1;html=1;rounded=0;fontSize=12;startSize=8;endSize=8;curved=1;" parent="1" source="YEEM2RJTBx1bhuOSEW0l-9" edge="1">
          <mxGeometry width="50" height="50" relative="1" as="geometry">
            <mxPoint x="439.5" y="350" as="sourcePoint" />
            <mxPoint x="439.5" y="100" as="targetPoint" />
          </mxGeometry>
        </mxCell>
        <mxCell id="YEEM2RJTBx1bhuOSEW0l-7" value="" style="rounded=1;whiteSpace=wrap;html=1;rotation=-90;" parent="1" vertex="1">
          <mxGeometry x="185" y="140" width="50" height="10" as="geometry" />
        </mxCell>
        <mxCell id="YEEM2RJTBx1bhuOSEW0l-10" value="" style="endArrow=none;dashed=1;html=1;rounded=0;fontSize=12;startSize=8;endSize=8;curved=1;" parent="1" source="YEEM2RJTBx1bhuOSEW0l-13" target="YEEM2RJTBx1bhuOSEW0l-9" edge="1">
          <mxGeometry width="50" height="50" relative="1" as="geometry">
            <mxPoint x="439.5" y="350" as="sourcePoint" />
            <mxPoint x="439.5" y="100" as="targetPoint" />
          </mxGeometry>
        </mxCell>
        <mxCell id="YEEM2RJTBx1bhuOSEW0l-9" value="" style="rounded=1;whiteSpace=wrap;html=1;rotation=-90;" parent="1" vertex="1">
          <mxGeometry x="415" y="140" width="50" height="10" as="geometry" />
        </mxCell>
        <mxCell id="YEEM2RJTBx1bhuOSEW0l-14" value="" style="endArrow=none;dashed=1;html=1;rounded=0;fontSize=12;startSize=8;endSize=8;curved=1;" parent="1" source="YEEM2RJTBx1bhuOSEW0l-17" target="YEEM2RJTBx1bhuOSEW0l-13" edge="1">
          <mxGeometry width="50" height="50" relative="1" as="geometry">
            <mxPoint x="439.5" y="350" as="sourcePoint" />
            <mxPoint x="440" y="170" as="targetPoint" />
          </mxGeometry>
        </mxCell>
        <mxCell id="YEEM2RJTBx1bhuOSEW0l-13" value="" style="rounded=1;whiteSpace=wrap;html=1;rotation=-90;" parent="1" vertex="1">
          <mxGeometry x="415" y="220" width="50" height="10" as="geometry" />
        </mxCell>
        <mxCell id="YEEM2RJTBx1bhuOSEW0l-16" value="" style="endArrow=none;dashed=1;html=1;rounded=0;fontSize=12;startSize=8;endSize=8;curved=1;entryX=0;entryY=0.5;entryDx=0;entryDy=0;" parent="1" target="YEEM2RJTBx1bhuOSEW0l-7" edge="1">
          <mxGeometry width="50" height="50" relative="1" as="geometry">
            <mxPoint x="210" y="420" as="sourcePoint" />
            <mxPoint x="210" y="330" as="targetPoint" />
          </mxGeometry>
        </mxCell>
        <mxCell id="YEEM2RJTBx1bhuOSEW0l-18" value="" style="endArrow=none;dashed=1;html=1;rounded=0;fontSize=12;startSize=8;endSize=8;curved=1;exitX=1;exitY=0.5;exitDx=0;exitDy=0;" parent="1" source="hrLlSWi1UARKcxIhK7bV-7" target="YEEM2RJTBx1bhuOSEW0l-17" edge="1">
          <mxGeometry width="50" height="50" relative="1" as="geometry">
            <mxPoint x="440" y="350" as="sourcePoint" />
            <mxPoint x="440" y="250" as="targetPoint" />
          </mxGeometry>
        </mxCell>
        <mxCell id="YEEM2RJTBx1bhuOSEW0l-17" value="" style="rounded=1;whiteSpace=wrap;html=1;rotation=-90;" parent="1" vertex="1">
          <mxGeometry x="415" y="300" width="50" height="10" as="geometry" />
        </mxCell>
        <mxCell id="YEEM2RJTBx1bhuOSEW0l-19" value="UcitajListuKorisnika(List&amp;lt;Korisnik&amp;gt;)" style="html=1;verticalAlign=bottom;labelBackgroundColor=none;endArrow=block;endFill=1;rounded=0;fontSize=12;startSize=8;endSize=8;curved=1;entryX=0.75;entryY=0;entryDx=0;entryDy=0;exitX=0.75;exitY=1;exitDx=0;exitDy=0;" parent="1" source="YEEM2RJTBx1bhuOSEW0l-7" target="YEEM2RJTBx1bhuOSEW0l-9" edge="1">
          <mxGeometry width="160" relative="1" as="geometry">
            <mxPoint x="220" y="140" as="sourcePoint" />
            <mxPoint x="380" y="140" as="targetPoint" />
          </mxGeometry>
        </mxCell>
        <mxCell id="YEEM2RJTBx1bhuOSEW0l-20" value="Lista korisnika" style="html=1;verticalAlign=bottom;labelBackgroundColor=none;endArrow=block;endFill=1;rounded=0;fontSize=12;startSize=8;endSize=8;curved=1;entryX=0.25;entryY=1;entryDx=0;entryDy=0;exitX=0.25;exitY=0;exitDx=0;exitDy=0;" parent="1" source="YEEM2RJTBx1bhuOSEW0l-9" target="YEEM2RJTBx1bhuOSEW0l-7" edge="1">
          <mxGeometry width="160" relative="1" as="geometry">
            <mxPoint x="430" y="150" as="sourcePoint" />
            <mxPoint x="590" y="150" as="targetPoint" />
          </mxGeometry>
        </mxCell>
        <mxCell id="YEEM2RJTBx1bhuOSEW0l-21" value="NadjiKorisnike(List&amp;lt;Korsnik&amp;gt;)" style="html=1;verticalAlign=bottom;labelBackgroundColor=none;endArrow=block;endFill=1;rounded=0;fontSize=12;startSize=8;endSize=8;curved=1;entryX=0.75;entryY=0;entryDx=0;entryDy=0;exitX=0.75;exitY=1;exitDx=0;exitDy=0;" parent="1" source="vn3jzW4ECJBIu7uXpiRa-1" target="YEEM2RJTBx1bhuOSEW0l-13" edge="1">
          <mxGeometry x="0.0027" width="160" relative="1" as="geometry">
            <mxPoint x="215" y="212.5" as="sourcePoint" />
            <mxPoint x="440" y="219" as="targetPoint" />
            <mxPoint as="offset" />
          </mxGeometry>
        </mxCell>
        <mxCell id="YEEM2RJTBx1bhuOSEW0l-22" value="Korisnici, &quot;Sistem je našao korisnike po zadatoj vrednosti&quot;" style="html=1;verticalAlign=bottom;labelBackgroundColor=none;endArrow=block;endFill=1;rounded=0;fontSize=12;startSize=8;endSize=8;curved=1;entryX=0.25;entryY=1;entryDx=0;entryDy=0;exitX=0.25;exitY=0;exitDx=0;exitDy=0;" parent="1" source="YEEM2RJTBx1bhuOSEW0l-13" target="vn3jzW4ECJBIu7uXpiRa-1" edge="1">
          <mxGeometry x="0.0027" width="160" relative="1" as="geometry">
            <mxPoint x="430" y="240" as="sourcePoint" />
            <mxPoint x="215" y="237.5" as="targetPoint" />
            <mxPoint as="offset" />
          </mxGeometry>
        </mxCell>
        <mxCell id="YEEM2RJTBx1bhuOSEW0l-23" value="UcitajKorisnika(Korisnik)" style="html=1;verticalAlign=bottom;labelBackgroundColor=none;endArrow=block;endFill=1;rounded=0;fontSize=12;startSize=8;endSize=8;curved=1;entryX=0.75;entryY=0;entryDx=0;entryDy=0;exitX=0.75;exitY=1;exitDx=0;exitDy=0;" parent="1" source="vn3jzW4ECJBIu7uXpiRa-3" target="YEEM2RJTBx1bhuOSEW0l-17" edge="1">
          <mxGeometry width="160" relative="1" as="geometry">
            <mxPoint x="215" y="292.5" as="sourcePoint" />
            <mxPoint x="440" y="290" as="targetPoint" />
          </mxGeometry>
        </mxCell>
        <mxCell id="YEEM2RJTBx1bhuOSEW0l-24" value="Korisnik, &quot;Sistem je učitao korisnika&quot;" style="html=1;verticalAlign=bottom;labelBackgroundColor=none;endArrow=block;endFill=1;rounded=0;fontSize=12;startSize=8;endSize=8;curved=1;entryX=0.25;entryY=1;entryDx=0;entryDy=0;exitX=0.25;exitY=0;exitDx=0;exitDy=0;" parent="1" source="YEEM2RJTBx1bhuOSEW0l-17" target="vn3jzW4ECJBIu7uXpiRa-3" edge="1">
          <mxGeometry width="160" relative="1" as="geometry">
            <mxPoint x="430" y="320" as="sourcePoint" />
            <mxPoint x="215" y="317.5" as="targetPoint" />
          </mxGeometry>
        </mxCell>
        <mxCell id="vn3jzW4ECJBIu7uXpiRa-2" value="" style="endArrow=none;dashed=1;html=1;rounded=0;fontSize=12;startSize=8;endSize=8;curved=1;" parent="1" source="vn3jzW4ECJBIu7uXpiRa-3" target="vn3jzW4ECJBIu7uXpiRa-1" edge="1">
          <mxGeometry width="50" height="50" relative="1" as="geometry">
            <mxPoint x="55" y="390" as="sourcePoint" />
            <mxPoint x="55" y="100" as="targetPoint" />
          </mxGeometry>
        </mxCell>
        <mxCell id="vn3jzW4ECJBIu7uXpiRa-1" value="" style="rounded=1;whiteSpace=wrap;html=1;rotation=-90;" parent="1" vertex="1">
          <mxGeometry x="30" y="220" width="50" height="10" as="geometry" />
        </mxCell>
        <mxCell id="vn3jzW4ECJBIu7uXpiRa-4" value="" style="endArrow=none;dashed=1;html=1;rounded=0;fontSize=12;startSize=8;endSize=8;curved=1;exitX=1;exitY=0.5;exitDx=0;exitDy=0;" parent="1" source="hrLlSWi1UARKcxIhK7bV-12" target="vn3jzW4ECJBIu7uXpiRa-3" edge="1">
          <mxGeometry width="50" height="50" relative="1" as="geometry">
            <mxPoint x="55" y="350" as="sourcePoint" />
            <mxPoint x="55" y="250" as="targetPoint" />
          </mxGeometry>
        </mxCell>
        <mxCell id="vn3jzW4ECJBIu7uXpiRa-3" value="" style="rounded=1;whiteSpace=wrap;html=1;rotation=-90;" parent="1" vertex="1">
          <mxGeometry x="30" y="300" width="50" height="10" as="geometry" />
        </mxCell>
        <mxCell id="hrLlSWi1UARKcxIhK7bV-6" value="" style="endArrow=none;dashed=1;html=1;rounded=0;fontSize=12;startSize=8;endSize=8;curved=1;" parent="1" target="hrLlSWi1UARKcxIhK7bV-7" edge="1">
          <mxGeometry width="50" height="50" relative="1" as="geometry">
            <mxPoint x="440" y="429" as="sourcePoint" />
            <mxPoint x="440" y="329" as="targetPoint" />
          </mxGeometry>
        </mxCell>
        <mxCell id="hrLlSWi1UARKcxIhK7bV-7" value="" style="rounded=1;whiteSpace=wrap;html=1;rotation=-90;" parent="1" vertex="1">
          <mxGeometry x="415" y="379" width="50" height="10" as="geometry" />
        </mxCell>
        <mxCell id="hrLlSWi1UARKcxIhK7bV-8" value="ObrisiKorisnika(Korisnik)" style="html=1;verticalAlign=bottom;labelBackgroundColor=none;endArrow=block;endFill=1;rounded=0;fontSize=12;startSize=8;endSize=8;curved=1;entryX=0.75;entryY=0;entryDx=0;entryDy=0;exitX=0.75;exitY=1;exitDx=0;exitDy=0;" parent="1" source="hrLlSWi1UARKcxIhK7bV-12" target="hrLlSWi1UARKcxIhK7bV-7" edge="1">
          <mxGeometry width="160" relative="1" as="geometry">
            <mxPoint x="215" y="371.5" as="sourcePoint" />
            <mxPoint x="440" y="369" as="targetPoint" />
          </mxGeometry>
        </mxCell>
        <mxCell id="hrLlSWi1UARKcxIhK7bV-9" value="&quot;Sistem ne može da obriše korisnika&quot;" style="html=1;verticalAlign=bottom;labelBackgroundColor=none;endArrow=block;endFill=1;rounded=0;fontSize=12;startSize=8;endSize=8;curved=1;entryX=0.25;entryY=1;entryDx=0;entryDy=0;exitX=0.25;exitY=0;exitDx=0;exitDy=0;" parent="1" source="hrLlSWi1UARKcxIhK7bV-7" target="hrLlSWi1UARKcxIhK7bV-12" edge="1">
          <mxGeometry width="160" relative="1" as="geometry">
            <mxPoint x="430" y="399" as="sourcePoint" />
            <mxPoint x="215" y="396.5" as="targetPoint" />
          </mxGeometry>
        </mxCell>
        <mxCell id="hrLlSWi1UARKcxIhK7bV-11" value="" style="endArrow=none;dashed=1;html=1;rounded=0;fontSize=12;startSize=8;endSize=8;curved=1;" parent="1" target="hrLlSWi1UARKcxIhK7bV-12" edge="1">
          <mxGeometry width="50" height="50" relative="1" as="geometry">
            <mxPoint x="55" y="429" as="sourcePoint" />
            <mxPoint x="55" y="329" as="targetPoint" />
          </mxGeometry>
        </mxCell>
        <mxCell id="hrLlSWi1UARKcxIhK7bV-12" value="" style="rounded=1;whiteSpace=wrap;html=1;rotation=-90;" parent="1" vertex="1">
          <mxGeometry x="30" y="379" width="50" height="10" as="geometry" />
        </mxCell>
      </root>
    </mxGraphModel>
  </diagram>
</mxfile>
